<svg xmlns="http://www.w3.org/2000/svg" xml:space="preserve" width="130" height="130" id="box">
  <path fill="#BF8621" d="M22.333 46.464 65 71.098v49.267L22.333 95.732z"></path>
  <path fill="#B77A18" d="M22.333 46.464 65 71.098v49.267"></path>
  <path fill="#A87118" d="M107.667 46.464 65 71.098v49.267l42.667-24.633z"></path>
  <path fill="#966215" d="M107.667 46.464 65 71.098v49.267"></path>
  <path fill="#492F0D" d="M22.333 46.585 65 71.219l42.667-24.634L65 21.952z"></path>
  <path fill="#935C0D" d="M65 46.846V21.952L22.333 46.585l21.56 12.447z"></path>
  <path fill="#281906" d="m65 71.219 42.667-24.634L65 21.952"></path>
  <path fill="#D39E35" d="M86.333 9.634 65 21.952l42.667 24.633L129 34.268z"></path>
  <path fill="#CC9132" d="M86.333 9.634 65 21.952l42.667 24.633"></path>
  <path fill="#D39E35" d="m1 58.782 42.667 24.632L65 71.098 22.333 46.464z"></path>
  <path fill="#CC9132" d="M65 71.098 22.333 46.464 1 58.782"></path>
  <path fill="#E2A047" d="m46.234 60.384-7.98-4.619"></path>
  <path fill="#1E1506" d="m72.873 100.371.036 9.233 8.017-4.598v-9.211l2.636-1.553-6.673-6.312-6.674 13.966z"></path>
</svg>
