<svg xmlns="http://www.w3.org/2000/svg" xml:space="preserve" width="64" height="64" id="box">
  <path fill="#D38C0D" d="m41.7 29.1 21.2-12.3L41.7 4.6 20.6 17z"></path>
  <path fill="#EFBB67" d="m22.3 29.1 21-12.2-21-12.3L1 16.9z"></path>
  <path fill="#EFBB67" d="M53 47.1 32 59.4 11 47.1V22.6l21-12.3 21 12.3z"></path>
  <path fill="#D38C0D" d="m32 10.3 21 12.3v24.5L32 59.4"></path>
  <path fill="#EFBB67" d="m41.8 40.4 21.1-12.1L41.7 16 20.5 28.3z"></path>
  <path fill="#D38C0D" d="m22.3 40.6 21.1-12.4L22.3 16 1 28.3z"></path>
  <path fill="#704A0E" d="M32.1 34.9 53 22.6 32.1 10.3 10.8 22.6z"></path>
  <path fill="#513307" d="M32.1 34.9 53 22.6 32.1 10.3"></path>
  <path fill="#2D1C05" d="m32.1 34.9 4.5-2.7-4.5-2.6-4.5 2.6z"></path>
  <path fill="#0DD396" d="m47 48.5 5-2.9V44l-5 2.9zM47 45.6l5-2.9v-1.6L47 44zM47 42.7l5-2.9v-1.7l-5 3z"></path>
</svg>
