<svg xmlns="http://www.w3.org/2000/svg" id="cardboard" enable-background="new 0 0 55 55" viewBox="0 0 55 55">
  <g id="_x31_79">
    <polygon fill="#bf7d5a" points="49.415 13.751 49.405 17.941 48.335 18.561 48.325 37.101 23.545 51.501 6.665 41.751 6.675 23.461 5.585 22.831 5.595 18.641 31.655 3.501"></polygon>
    <g>
      <polygon fill="#bf7d5a" points="48.334 16.436 48.322 37.103 23.55 51.499 23.561 30.832"></polygon>
      <polygon fill="#dba660" points="23.561 30.832 23.55 51.499 6.666 41.752 6.678 21.084"></polygon>
      <polygon fill="#dba660" points="48.334 16.436 23.561 30.832 6.678 21.084 31.45 6.688"></polygon>
    </g>
    <g>
      <polygon fill="#aa6256" points="49.415 13.753 49.404 17.944 23.344 33.088 23.356 28.897"></polygon>
      <polygon fill="#bf7d5a" points="23.356 28.897 23.344 33.088 5.585 22.834 5.596 18.643"></polygon>
      <polygon fill="#dba660" points="49.415 13.753 23.356 28.897 5.596 18.643 31.656 3.499"></polygon>
    </g>
    <path fill="#bf7d5a" d="M18.389946,33.6070442c0.8442364,0.4874229,1.5289841,1.6734428,1.5262337,2.6435356c-0.002697,0.9514389-0.6806564,1.364624-1.5361977,0.8706741l-6.54284-3.7775078c-0.8442364-0.4874229-1.5289698-1.6686707-1.5262194-2.6387634c0.0027351-0.9646683,0.6976995-1.3595467,1.5361824-0.8754482L18.389946,33.6070442z"></path>
    <polygon fill="#aa6256" points="19.522 41.776 19.519 42.786 10.717 37.704 10.719 36.693"></polygon>
    <polygon fill="#aa6256" points="19.517 44.473 19.514 45.484 10.711 40.401 10.714 39.391"></polygon>
  </g>
</svg>
