<svg xmlns="http://www.w3.org/2000/svg" id="colored-foldable-box" width="2000" height="2000" version="1.1" viewBox="0 0 2000 2000">
  <polygon points="259.518 995.242 259.518 1291.604 533.508 1661.677 1714.124 1484.795 1740.484 1184.912 1315.385 894.934 1440.097 605.271 1737.171 579.852 1563.025 328.808 387.531 399.372 259.518 995.242" style="fill-rule:evenodd;fill:#d39b76"></polygon>
  <polygon points="259.518 995.242 1315.385 894.934 1440.097 605.271 513.02 676.447 387.531 399.372 259.518 995.242" style="fill:#e1ccb7;fill-rule:evenodd"></polygon>
  <polygon points="1315.385 894.934 259.518 995.242 496.532 1264.51 1277.432 1161.754 1315.385 894.934" style="fill:#e1ccb7;fill-rule:evenodd"></polygon>
  <polygon points="1315.385 894.934 1277.432 1161.754 1355.007 1235.283 1740.484 1184.912 1315.385 894.934" style="fill:#e1ccb7;fill-rule:evenodd"></polygon>
  <polygon points="1277.432 1161.754 496.532 1264.51 562.017 1338.906 1355.007 1235.283 1277.432 1161.754" style="fill:#e1ccb7;fill-rule:evenodd"></polygon>
  <path d="m507.1005586 686.4444306-128.2394831-283.1467407c-2.1661307-4.7865501-.0433639-10.4248914 4.7431862-12.5930871 4.7865501-2.1723256 10.4259239-.0433639 12.5941196 4.7421537l122.7384608 271.0027798 920.4300465-70.6656276c5.230514-.4078273 9.8126342 3.5197043 10.2152991 8.7595106.4026649 5.2387738-3.5186719 9.8126342-8.7574457 10.2152991l-933.7241835 71.685712ZM259.5049999 1004.758273c-4.8505635 0-8.9949147-3.6910951-9.461593-8.6159967-.4976525-5.2325789 3.3410863-9.8756152 8.5716003-10.3732677l1055.8700042-100.3079601c5.2387738-.479068 9.8766476 3.3421188 10.3722352 8.5726328.4976525 5.2315465-3.3410863 9.8756152-8.5716003 10.3732677l-1055.8700042 100.3079601c-.3056123.0289093-.6112247.0433639-.9106422.0433639Z" style="fill:#333"></path>
  <path d="M533.5195069,1671.1924537c-.280833,0-.5616659-.0123897-.8466288-.0382015-5.2367088-.4625484-9.104357-5.0808052-8.6418086-10.3154491l28.149375-318.707215-299.8077759-340.6028941c-3.4711781-3.9440512-3.0891626-9.9571806.8548886-13.4293911,3.9461162-3.4722105,9.9592456-3.0891626,13.4304236.8559211l305.1972909,346.7254658-28.867977,326.8327865c-.437769,4.949681-4.59038,8.6779451-9.4677879,8.6789776Z" style="fill:#333"></path>
  <path d="M562.0054684 1348.4224529c-4.7060171 0-8.7966797-3.4907951-9.422359-8.28354-.6814329-5.210897 2.9900451-9.9871224 8.2019746-10.6675228l1178.4659836-153.9945505c5.1933449-.6762706 9.9881548 2.9900451 10.6675228 8.2019746.6814329 5.210897-2.9900451 9.9871224-8.2019746 10.6675228l-1178.4659836 153.9945505c-.4171196.0547211-.8342391.0815655-1.2451638.0815655ZM496.5197636 1274.0264963c-4.7018872 0-8.7904848-3.4856327-9.422359-8.2752802-.6855628-5.2098645 2.9838503-9.9891873 8.1937148-10.6747501l773.7381856-101.8133074 36.9357299-259.6693112c.7392515-5.2026372 5.550581-8.8348812 10.7604455-8.0801426 5.2016047.740284 8.8193941 5.5578083 8.0801426 10.7604455l-38.9717689 273.971143-788.0606669 103.6986052c-.4212494.0557536-.840434.0825979-1.2534236.0825979Z" style="fill:#333"></path>
  <path d="M1355.0054916,1244.7992183c-2.3499111,0-4.7039522-.8652133-6.5438211-2.6090622l-77.575977-73.5297108c-3.8139595-3.6157244-3.9750254-9.6381461-.359301-13.4521056,3.6136595-3.8139595,9.6371136-3.9750254,13.4510731-.3603335l77.575977,73.5297108c3.8139595,3.6157244,3.9750254,9.6381461.359301,13.4521056-1.8708431,1.9740906-4.3859501,2.9693956-6.907252,2.9693956Z" style="fill:#333"></path>
</svg>
