<svg xmlns="http://www.w3.org/2000/svg" width="48" height="48" fill="none" id="empty-box">
  <path fill="#EDAB6E" d="M24 19 8 14l16-5 16 5-16 5Z"></path>
  <path fill="#EDAB6E" d="M24 39V19l16-5v20l-16 5Z"></path>
  <path fill="#FFBD7F" d="M24 39V19L8 14v20l16 5Z"></path>
  <path fill="#FDC18A" d="m40 14-16 5 3 5 16-5-3-5zM8 14l16 5-3 5-16-5 3-5z"></path>
  <path fill="#FFDAB8" fill-rule="evenodd" d="M8.777 16.006a.5.5 0 0 1 .139.693l-.632.949 11.868 3.798a.5.5 0 1 1-.304.952l-12.5-4a.5.5 0 0 1-.264-.753l1-1.5a.5.5 0 0 1 .693-.14zm.786 4.369a.5.5 0 0 1 .5.5v12a.5.5 0 0 1-1 0v-12a.5.5 0 0 1 .5-.5z" clip-rule="evenodd"></path>
  <path fill="#1F0D02" fill-rule="evenodd" d="M24.15 19.477a.499.499 0 0 1-.3 0l-16-5a.5.5 0 0 1 0-.954l16-5a.5.5 0 0 1 .3 0l16 5a.5.5 0 0 1 0 .954l-16 5ZM38.323 14 24 9.524 9.676 14 24 18.476 38.324 14Z" clip-rule="evenodd"></path>
  <path fill="#1F0D02" fill-rule="evenodd" d="M24 18.5a.5.5 0 0 0-.5.5v20a.5.5 0 0 0 .65.477l16-5A.5.5 0 0 0 40.5 34V20a.5.5 0 0 0-1 0v13.632l-15 4.688V19a.5.5 0 0 0-.5-.5Z" clip-rule="evenodd"></path>
  <path fill="#1F0D02" fill-rule="evenodd" d="M24 18.5a.5.5 0 0 1 .5.5v20a.5.5 0 0 1-.65.477l-16-5A.5.5 0 0 1 7.5 34V20a.5.5 0 0 1 1 0v13.632l15 4.688V19a.5.5 0 0 1 .5-.5Z" clip-rule="evenodd"></path>
  <path fill="#1F0D02" fill-rule="evenodd" d="M39.743 13.571a.5.5 0 0 0-.172.686l2.673 4.455-15.018 4.693-2.797-4.662a.5.5 0 1 0-.858.514l3 5a.5.5 0 0 0 .578.22l16-5a.5.5 0 0 0 .28-.734l-3-5a.5.5 0 0 0-.686-.172Z" clip-rule="evenodd"></path>
  <path fill="#1F0D02" fill-rule="evenodd" d="M8.257 13.571a.5.5 0 0 1 .172.686l-2.673 4.455 15.018 4.693 2.797-4.662a.5.5 0 1 1 .858.514l-3 5a.5.5 0 0 1-.578.22l-16-5a.5.5 0 0 1-.28-.734l3-5a.5.5 0 0 1 .686-.172Z" clip-rule="evenodd"></path>
</svg>
