<svg xmlns="http://www.w3.org/2000/svg" id="flat-paper-box" width="2000" height="2000" version="1.1" viewBox="0 0 2000 2000">
  <polygon points="254.756 406.349 495.514 1667.576 860.009 1740.485 1663.067 1547.824 1735.726 1135.058 1304.419 1091.743 1435.015 954.155 1257.639 259.515 401.8 341.908 254.756 406.349" style="fill:#e9b369;fill-rule:evenodd"></polygon>
  <polygon points="414.373 411.083 1143.042 343.3 1257.639 259.515 401.8 341.908 414.373 411.083" style="fill-rule:evenodd;fill:#e1ccb7"></polygon>
  <polygon points="1143.042 343.3 414.375 411.083 542.374 1115.256 419.407 1268.89 1304.419 1091.743 1143.042 343.3" style="fill-rule:evenodd;fill:#e1ccb7"></polygon>
  <polygon points="1139.618 327.425 1304.419 1091.743 1435.015 954.155 1257.639 259.515 1139.618 327.425" style="fill-rule:evenodd;fill:#e1ccb7"></polygon>
  <polygon points="1735.726 1135.058 1304.419 1091.743 1307.748 1222.878 1735.726 1135.058" style="fill-rule:evenodd;fill:#e1ccb7"></polygon>
  <polygon points="1307.748 1222.878 1304.419 1091.743 419.407 1268.89 842.925 1318.258 1307.748 1222.878" style="fill-rule:evenodd;fill:#e1ccb7"></polygon>
  <path d="M419.4008166 1278.4056102c-2.0856044 0-4.1856635-.6814351-5.9388102-2.0856044-4.1030653-3.2853432-4.7679808-9.2737123-1.4847025-13.3747126l120.2609058-150.2523101-139.8015736-769.084176c-.9395545-5.170647 2.4903356-10.1244737 7.6609825-11.0640281 5.1892316-.9230348 10.1244737 2.4924005 11.0640281 7.6609825l141.3502898 777.6124396-125.6752174 157.0171022c-1.8791089 2.3478537-4.6461484 3.5703069-7.4359024 3.5703069ZM1304.4115582 1101.2613929c-4.3880291 0-8.3320928-3.0499383-9.2922968-7.5123058l-162.6812734-754.4849452 119.5856656-87.4301886c4.2414173-3.1015622 10.1946821-2.1743975 13.2983093 2.0649549 3.1015622 4.2434822 2.1764624 10.1967471-2.0649549 13.2983093l-109.6119336 80.136768 160.0753004 742.4049593c1.1088808 5.1355427-2.1578778 10.198812-7.2954855 11.3076928-.6752402.1445468-1.3504805.2147553-2.013331.2147553Z" style="fill:#333"></path>
  <path d="M842.9375121,1327.7745508c-.367562,0-.7392538-.0206495-1.1150756-.0640136l-423.5181109-49.3689407c-5.2181409-.6091617-8.9577742-5.3337784-8.3486125-10.5539843.6091617-5.2181409,5.3151938-8.9557092,10.5539843-8.3486125l423.5181109,49.3689407c5.2181409.6091617,8.9577742,5.3337784,8.3486125,10.5539843-.5657976,4.8443841-4.6771227,8.4126261-9.4389086,8.4126261Z" style="fill:#333"></path>
  <path d="M860.002299,1750c-5.077724,0-9.2943618-4.0101423-9.5008573-9.1312304l-17.4116993-430.3056175,900.725048-184.8258493c5.1376077-1.0551919,10.1760975,2.2590606,11.2333544,7.409058,1.0572569,5.1479325-2.2611256,10.1760975-7.409058,11.2333544l-884.8785845,181.5756103,16.7550437,414.1452808c.2126904,5.2511802-3.8717904,9.6784434-9.1229706,9.8911338-.1300922.0061949-.2601843.0082598-.3902765.0082598Z" style="fill:#333"></path>
  <path d="M419.3966867 1278.4076751c-4.4417179 0-8.414691-3.1263417-9.3191413-7.6506577-1.0324774-5.1520624 2.3086195-10.1657728 7.4627468-11.1961852l896.1036791-179.3681736 3.6178009 142.4405859c.1321571 5.2532452-4.0184021 9.6206247-9.2716473 9.7548467-.0825982.002065-.1651964.002065-.2457296.002065-5.1438025 0-9.37696-4.1030653-9.5070522-9.2737123l-3.0416785-119.8210704-873.921934 174.9243907c-.6298112.1259622-1.2575575.1879109-1.877044.1879109ZM414.3623267 420.5985838c-4.8588388 0-9.0052681-3.7003991-9.4636881-8.6335762-.4873293-5.2325956 3.3596815-9.8684193 8.5922772-10.3557486l728.6688796-67.7842081c5.25944-.4976541 9.8704842 3.3617465 10.3557486 8.5922772.4873293 5.2325956-3.3596815 9.8684193-8.5922772 10.3557486l-728.6688796 67.7842081c-.2994185.0289094-.5988369.0412991-.8920605.0412991Z" style="fill:#333"></path>
</svg>
