<svg width="337" height="86" viewBox="0 0 337 86" fill="none" xmlns="http://www.w3.org/2000/svg">
<path d="M0.800804 30.1873L6.58598 35.3957C7.78253 36.473 9.6161 36.4137 10.7405 35.2613L21.2079 24.5333C22.2839 23.4305 24.0203 23.3221 25.2251 24.2825L39.7155 35.8334C40.8096 36.7056 42.3614 36.7056 43.4555 35.8334L57.983 24.2529C59.1721 23.305 60.8823 23.3967 61.9632 24.4663L72.8218 35.2115C74.0004 36.3778 75.9017 36.3668 77.0667 35.1868L82.9706 29.2071C83.363 28.8097 83.3538 28.1679 82.9503 27.7819L55.8012 1.81185C54.7164 0.774099 53.0315 0.698047 51.8575 1.63384L46.9678 5.53168C45.6895 6.55065 45.4623 8.40544 46.4569 9.70278L48.6268 12.5332C49.579 13.7753 49.4163 15.5408 48.2532 16.588L43.5928 20.7837C42.4517 21.811 40.7193 21.811 39.5782 20.7837L35.0942 16.7468C33.8602 15.6357 33.7634 13.7335 34.8783 12.503L37.4457 9.66926C38.5858 8.41082 38.4551 6.45774 37.1574 5.36245L32.8645 1.73904C31.6927 0.750042 29.9638 0.803815 28.8557 1.86372L0.778652 28.7215C0.358337 29.1236 0.368532 29.7981 0.800804 30.1873Z" fill="#1664C0"/>
<path d="M82.8838 55.759L77.0986 50.5505C75.902 49.4733 74.0685 49.5326 72.9441 50.685L62.4767 61.413C61.4007 62.5158 59.6643 62.6242 58.4595 61.6638L43.9691 50.1129C42.8749 49.2407 41.3232 49.2407 40.2291 50.1129L25.7015 61.6934C24.5125 62.6413 22.8023 62.5496 21.7214 61.48L10.8628 50.7348C9.68417 49.5684 7.78286 49.5795 6.61785 50.7595L0.713939 56.7392C0.321566 57.1366 0.330737 57.7784 0.734294 58.1644L27.8833 84.1344C28.9682 85.1722 30.6531 85.2482 31.8271 84.3124L36.7168 80.4146C37.9951 79.3956 38.2222 77.5408 37.2277 76.2435L35.0578 73.4131C34.1056 72.171 34.2682 70.4055 35.4314 69.3583L40.0918 65.1626C41.2328 64.1353 42.9653 64.1353 44.1063 65.1626L48.5903 69.1995C49.8244 70.3106 49.9212 72.2128 48.8063 73.4433L46.2389 76.277C45.0988 77.5355 45.2295 79.4885 46.5271 80.5838L50.8201 84.2072C51.9919 85.1962 53.7208 85.1425 54.8288 84.0826L82.9059 57.2248C83.3262 56.8227 83.316 56.1481 82.8838 55.759Z" fill="#1664C0"/>
<rect width="18.0856" height="18.0856" rx="2" transform="matrix(0.722623 0.691242 -0.722623 0.691242 23.8511 29.9592)" fill="#1664C0"/>
<rect width="18.0856" height="18.0856" rx="2" transform="matrix(0.722623 0.691242 -0.722623 0.691242 57.7354 29.9592)" fill="#1664C0"/>
<path d="M115.422 52.621H128.422V56.141H111.702V28.141H128.222V31.661H115.422V40.261H127.222V43.741H115.422V52.621ZM147.513 56.141L141.233 45.421H134.633V56.141H130.913V28.141H142.113C144.513 28.141 146.566 28.9943 148.273 30.701C149.98 32.381 150.833 34.421 150.833 36.821C150.833 38.6343 150.286 40.2877 149.193 41.781C148.126 43.2743 146.74 44.3277 145.033 44.941L151.633 56.141H147.513ZM134.633 31.621V42.061H142.113C143.5 42.061 144.673 41.5543 145.633 40.541C146.62 39.501 147.113 38.261 147.113 36.821C147.113 35.381 146.62 34.1543 145.633 33.141C144.673 32.1277 143.5 31.621 142.113 31.621H134.633ZM180.249 42.261V43.941C180.249 47.5943 178.996 50.6343 176.489 53.061C173.982 55.461 170.662 56.661 166.529 56.661C162.262 56.661 158.729 55.261 155.929 52.461C153.156 49.6343 151.769 46.1943 151.769 42.141C151.769 38.0877 153.156 34.661 155.929 31.861C158.729 29.0343 162.236 27.621 166.449 27.621C169.036 27.621 171.409 28.2477 173.569 29.501C175.729 30.7277 177.396 32.3543 178.569 34.381L175.369 36.261C174.569 34.741 173.356 33.5277 171.729 32.621C170.129 31.6877 168.356 31.221 166.409 31.221C163.209 31.221 160.582 32.2743 158.529 34.381C156.476 36.461 155.449 39.0477 155.449 42.141C155.449 45.2343 156.476 47.821 158.529 49.901C160.609 51.981 163.289 53.021 166.569 53.021C169.369 53.021 171.636 52.341 173.369 50.981C175.102 49.5943 176.156 47.8077 176.529 45.621H166.249V42.261H180.249ZM203.932 56.661C199.692 56.661 196.186 55.261 193.412 52.461C190.666 49.661 189.292 46.221 189.292 42.141C189.292 38.061 190.666 34.621 193.412 31.821C196.186 29.021 199.692 27.621 203.932 27.621C206.492 27.621 208.839 28.2343 210.972 29.461C213.132 30.6877 214.812 32.341 216.012 34.421L212.772 36.301C211.972 34.7543 210.772 33.5277 209.172 32.621C207.599 31.6877 205.852 31.221 203.932 31.221C200.706 31.221 198.066 32.261 196.012 34.341C193.986 36.421 192.972 39.021 192.972 42.141C192.972 45.2343 193.986 47.821 196.012 49.901C198.066 51.981 200.706 53.021 203.932 53.021C205.852 53.021 207.599 52.5677 209.172 51.661C210.772 50.7277 211.972 49.501 212.772 47.981L216.012 49.821C214.839 51.901 213.172 53.5677 211.012 54.821C208.852 56.0477 206.492 56.661 203.932 56.661ZM234.667 53.621C232.614 55.6477 230.121 56.661 227.187 56.661C224.254 56.661 221.761 55.6477 219.707 53.621C217.681 51.5943 216.667 49.101 216.667 46.141C216.667 43.181 217.681 40.6877 219.707 38.661C221.761 36.6343 224.254 35.621 227.187 35.621C230.121 35.621 232.614 36.6343 234.667 38.661C236.721 40.6877 237.747 43.181 237.747 46.141C237.747 49.101 236.721 51.5943 234.667 53.621ZM227.187 53.261C229.187 53.261 230.867 52.581 232.227 51.221C233.587 49.861 234.267 48.1677 234.267 46.141C234.267 44.1143 233.587 42.421 232.227 41.061C230.867 39.701 229.187 39.021 227.187 39.021C225.214 39.021 223.547 39.701 222.187 41.061C220.827 42.421 220.147 44.1143 220.147 46.141C220.147 48.1677 220.827 49.861 222.187 51.221C223.547 52.581 225.214 53.261 227.187 53.261ZM249.81 35.621C252.157 35.621 254.037 36.3677 255.45 37.861C256.863 39.3277 257.57 41.3277 257.57 43.861V56.141H254.09V44.061C254.09 42.4343 253.65 41.181 252.77 40.301C251.89 39.3943 250.677 38.941 249.13 38.941C247.397 38.941 245.997 39.4877 244.93 40.581C243.863 41.6477 243.33 43.301 243.33 45.541V56.141H239.85V36.141H243.33V39.021C244.743 36.7543 246.903 35.621 249.81 35.621ZM270.388 35.621C272.735 35.621 274.615 36.3677 276.028 37.861C277.441 39.3277 278.148 41.3277 278.148 43.861V56.141H274.668V44.061C274.668 42.4343 274.228 41.181 273.348 40.301C272.468 39.3943 271.255 38.941 269.708 38.941C267.975 38.941 266.575 39.4877 265.508 40.581C264.441 41.6477 263.908 43.301 263.908 45.541V56.141H260.428V36.141H263.908V39.021C265.321 36.7543 267.481 35.621 270.388 35.621ZM283.446 47.741C283.793 49.5277 284.606 50.9143 285.886 51.901C287.193 52.8877 288.793 53.381 290.686 53.381C293.326 53.381 295.246 52.4077 296.446 50.461L299.406 52.141C297.459 55.1543 294.526 56.661 290.606 56.661C287.433 56.661 284.846 55.6743 282.846 53.701C280.873 51.701 279.886 49.181 279.886 46.141C279.886 43.1277 280.859 40.621 282.806 38.621C284.753 36.621 287.273 35.621 290.366 35.621C293.299 35.621 295.686 36.661 297.526 38.741C299.393 40.7943 300.326 43.2743 300.326 46.181C300.326 46.6877 300.286 47.2077 300.206 47.741H283.446ZM290.366 38.901C288.499 38.901 286.953 39.4343 285.726 40.501C284.499 41.541 283.739 42.941 283.446 44.701H296.806C296.513 42.8077 295.766 41.3677 294.566 40.381C293.366 39.3943 291.966 38.901 290.366 38.901ZM311.687 56.661C308.674 56.661 306.167 55.661 304.167 53.661C302.167 51.6343 301.167 49.1277 301.167 46.141C301.167 43.1543 302.167 40.661 304.167 38.661C306.167 36.6343 308.674 35.621 311.687 35.621C313.661 35.621 315.434 36.101 317.007 37.061C318.581 37.9943 319.754 39.261 320.527 40.861L317.607 42.541C317.101 41.4743 316.314 40.621 315.247 39.981C314.207 39.341 313.021 39.021 311.687 39.021C309.687 39.021 308.007 39.701 306.647 41.061C305.314 42.421 304.647 44.1143 304.647 46.141C304.647 48.141 305.314 49.821 306.647 51.181C308.007 52.541 309.687 53.221 311.687 53.221C313.021 53.221 314.221 52.9143 315.287 52.301C316.354 51.661 317.167 50.8077 317.727 49.741L320.687 51.461C319.834 53.0343 318.607 54.301 317.007 55.261C315.407 56.1943 313.634 56.661 311.687 56.661ZM333.003 39.501H327.683V50.341C327.683 51.3277 327.87 52.0343 328.243 52.461C328.643 52.861 329.243 53.0743 330.043 53.101C330.843 53.101 331.83 53.0743 333.003 53.021V56.141C329.963 56.541 327.737 56.301 326.323 55.421C324.91 54.5143 324.203 52.821 324.203 50.341V39.501H320.243V36.141H324.203V31.581L327.683 30.541V36.141H333.003V39.501Z" fill="black"/>
</svg>
