<svg xmlns="http://www.w3.org/2000/svg" id="open-lid-box" width="2000" height="2000" version="1.1" viewBox="0 0 2000 2000">
  <polygon points="264.274 1044.801 264.276 1403.375 902.627 1740.485 1454.927 1504.449 1465.756 1114.59 1745.244 407.068 1667.238 320.49 943.778 259.516 692.535 842.651 790.419 923.457 264.274 1044.801" style="fill-rule:evenodd;fill:#ce7a46"></polygon>
  <polygon points="790.419 923.457 1032.492 350.975 943.778 259.516 692.535 842.651 790.419 923.457" style="fill:#e1ccb7;fill-rule:evenodd"></polygon>
  <polygon points="1032.492 350.975 1634.126 409.159 1667.238 320.49 943.778 259.516 1032.492 350.975" style="fill:#e1ccb7;fill-rule:evenodd"></polygon>
  <polygon points="1634.126 409.159 1032.492 350.975 790.419 923.457 1465.756 1114.59 1398.815 1039.298 1634.126 409.159" style="fill:#e1ccb7;fill-rule:evenodd"></polygon>
  <polygon points="1465.756 1114.59 790.419 923.457 788.825 1269.023 900.459 1316.74 1465.756 1114.59" style="fill:#e1ccb7;fill-rule:evenodd"></polygon>
  <polygon points="788.825 1269.023 790.419 923.457 264.274 1044.801 788.825 1269.023" style="fill:#e1ccb7;fill-rule:evenodd"></polygon>
  <path d="M900.1506275,1326.9562907l-639.6169539-273.4058982c-4.8330212-2.0649524-7.0755595-7.6568437-5.0095746-12.4888324s7.664071-7.0734946,12.4888324-5.0095746l632.7551169,270.4716007,533.776784-190.8780089-646.7183254-183.0322221c-5.0560361-1.431012-7.9954959-6.6904459-6.5644838-11.7475144,1.4320445-5.0560361,6.6945758-7.9934309,11.7475144-6.5644838l703.958807,199.231774-596.8177171,213.4231596Z" style="fill:#333"></path>
  <path d="M902.625473 1750c-5.2325895 0-9.487424-4.2279901-9.5142684-9.4667745l-2.1671676-423.7447607c-.0268444-5.255304 4.2114705-9.5369829 9.4667745-9.5638272 5.3265448.045429 9.5369829 4.2114705 9.5638272 9.4667745l2.1671676 423.7447607c.0268444 5.255304-4.2114705 9.5369829-9.4667745 9.5638272h-.0495589ZM788.8259439 1278.5383183h-.045429c-5.2542715-.0247794-9.4946513-4.3043934-9.4709044-9.5596973l1.5931108-345.5646288c.023747-5.2408493 4.2796139-9.4719369 9.5142684-9.4719369h.0443965c5.255304.0247794 9.4956838 4.3043934 9.4719369 9.5596973l-1.5931108 345.5646288c-.023747 5.2408493-4.2796139 9.4719369-9.5142684 9.4719369ZM1465.7607184 1124.1046551c-2.6245546 0-5.2346544-1.0779052-7.1158261-3.1924165l-70.7494006-79.5739748 270.4282367-724.1767564c1.8378077-4.9228466 7.3181915-7.4214391 12.243103-5.5856964 4.9228466 1.8388401 7.423504 7.3202564 5.5856964 12.243103l-266.4180991 713.4390037 63.133856 71.0085521c3.4918346 3.9275395 3.1387277 9.9417135-.7888118 13.4335481-1.8130282 1.6116954-4.0700213 2.4046371-6.3187545 2.4046371Z" style="fill:#333"></path>
  <path d="M1634.1390054,418.6756019c-.3076779,0-.6174208-.0154871-.9292286-.045429l-605.1136636-58.5207522-91.1480333-93.9687583c-3.6590957-3.7726681-3.5672053-9.7961344.2044303-13.4552301,3.7737006-3.6601282,9.7971669-3.5661729,13.4552301.2044303l86.2809404,88.9509239,598.1547738,57.8475777c5.2305245.5059133,9.0610113,5.1561862,8.555098,10.3867108-.477004,4.9197492-4.6192986,8.6005269-9.4595471,8.6005269Z" style="fill:#333"></path>
  <path d="M790.4138924,932.974722c-1.235874,0-2.4913651-.2415994-3.7014273-.7537076-4.8402485-2.0463679-7.1055014-7.6289668-5.058101-12.4692153l242.0743748-572.4822526c2.0443029-4.8423135,7.6299993-7.1085988,12.4702478-5.058101,4.8402485,2.0463679,7.1034364,7.6289668,5.0570685,12.4692153l-242.0743748,572.4822526c-1.5342597,3.6301864-5.060166,5.8118086-8.7677881,5.8118086Z" style="fill:#333"></path>
  <polygon points="1222.474 1423.422 1223.147 1555.188 1411.304 1474.775 1414.638 1343.275 1222.474 1423.422" style="fill:#e1ccb7;fill-rule:evenodd"></polygon>
</svg>
