<svg xmlns="http://www.w3.org/2000/svg" viewBox="0 0 60.75 56.14" id="open-box">
  <g>
    <polygon fill="#ffd28a" points="60.75 13.09 50.98 18.84 35.85 9.57 30.5 6.25 40.34 .16 60.75 13.09"></polygon>
    <polygon fill="#ffc861" points="30.5 30.89 30.5 56.14 10 43.77 10 31.41 19.26 37.49 30.5 30.89"></polygon>
    <polygon fill="#edb458" points="50.99 31.08 50.99 43.77 30.5 56.14 30.5 30.88 30.51 30.88 41.48 37.34 50.99 31.08"></polygon>
    <path fill="#ffd28a" d="m20.28,24.87l-.83-.49-9.37-5.48-.08.04L.24,24.99l9.76,6.42,9.26,6.08,11.24-6.6h0s-10.22-6.02-10.22-6.02Zm-11.42-4.44v-.1l.08.05-.08.05Z"></path>
    <polygon fill="#ffd28a" points="60.5 24.83 50.99 31.08 41.48 37.34 30.51 30.88 43.74 23.1 50.92 18.9 50.99 18.94 60.5 24.83"></polygon>
    <polygon fill="#ffd28a" points="30.5 6.25 24.73 9.83 10.03 18.83 0 12.93 20.4 0 30.5 6.25"></polygon>
    <polygon fill="#edb458" points="50.9 18.89 43.74 23.1 30.5 30.85 20.28 24.87 19.45 24.38 10.11 18.88 24.73 9.83 30.5 6.29 35.85 9.57 50.9 18.89"></polygon>
  </g>
</svg>
