<svg xmlns="http://www.w3.org/2000/svg" id="paper-bag-with-round-window" width="2000" height="2000" version="1.1" viewBox="0 0 2000 2000">
  <path d="M560.6678728,259.5185087h890.0151882c49.8949601,413.6547946,85.4837939,858.7984524,118.4328069,1309.7400899-96.6262077,57.0751742-193.2536496,114.1509655-289.8798573,171.2261398-285.956533-39.1462363-571.912449-78.2912384-857.868982-117.4374747,3.9899677-394.4822981,33.7937803-782.5057357,99.475215-1161.5639381-17.7277735.14316-35.4536958.2887883-53.1814692.4319483,31.0021604-67.4653827,62.0043209-134.9307654,93.0070984-202.3967651Z" style="fill:#b67c56;fill-rule:evenodd"></path>
  <path d="M1354.2355399,484.0554949l-833.5422412-13.0577013c-5.2552937-.0825979-9.4481715-4.4086649-9.3655736-9.6629261.0825979-5.2552937,4.4509963-9.4905029,9.6629261-9.3655736l821.3218765,12.8656611,99.7803726-209.4095166c2.260086-4.7431865,7.9428241-6.7596086,12.6829132-4.4974577,4.744219,2.2611185,6.7575437,7.9386942,4.4974577,12.6829132l-105.0377312,220.444601Z" style="fill:#333"></path>
  <path d="M1279.2448731,1750c-.2003,0-.4016325-.0061948-.6039974-.0185845-5.244969-.3283268-9.2303194-4.8474664-8.9019926-10.0914029,32.3928459-516.8431671,75.6091188-1054.156168,171.6591621-1482.4543469,1.1501763-5.1282994,6.2371767-8.3506514,11.367541-7.2025401,5.1272669,1.1501763,8.3516839,6.2392416,7.2025401,11.367541-95.7609505,427.0055212-138.8915281,963.417172-171.2358477,1479.4787562-.3159371,5.042604-4.504685,8.9205772-9.4874055,8.9205772Z" style="fill:#333"></path>
  <path d="M1569.106845,1578.7744771c-1.6984201,0-3.4174896-.4542887-4.9713633-1.4082948l-266.9513693-163.995106c-4.4778406-2.7515438-5.8778757-8.6108349-3.1273644-13.0886756s8.60877-5.8758107,13.0886756-3.1273644l266.9513693,163.995106c4.4778406,2.7515438,5.8778757,8.6108349,3.1273644,13.0886756-1.7965051,2.923967-4.9197396,4.5356592-8.1173122,4.5356592Z" style="fill:#333"></path>
  <ellipse cx="880.281" cy="1015.441" rx="277.681" ry="166.609" style="fill:#e1ccb7"></ellipse>
  <path d="M880.2813514,1191.5646418c-75.8703348,0-147.341297-17.8122451-201.245743-50.1544997-55.426313-33.2559943-85.9503805-77.9920693-85.9503805-125.9690809s30.5240675-92.7130866,85.9503805-125.9690809c53.904446-32.3422546,125.3754082-50.1544997,201.245743-50.1544997s147.341297,17.8122451,201.245743,50.1544997c55.426313,33.2559943,85.9503805,77.9920693,85.9503805,125.9690809s-30.5240675,92.7130866-85.9503805,125.9690809c-53.904446,32.3422546-125.3754082,50.1544997-201.245743,50.1544997ZM880.2813514,858.3480453c-147.8668264,0-268.1655589,70.4715272-268.1655589,157.0930159s120.2987325,157.0930159,268.1655589,157.0930159,268.1655589-70.4715272,268.1655589-157.0930159-120.2987325-157.0930159-268.1655589-157.0930159Z" style="fill:#333"></path>
</svg>
