<svg xmlns="http://www.w3.org/2000/svg" id="rectangular-folding-box" width="2000" height="2000" version="1.1" viewBox="0 0 2000 2000">
  <polygon points="435.317 1207.301 436.707 1604.862 1273.531 1740.424 1557.107 1364.378 1554.611 1119.25 1745.212 900.364 1555.841 1028.253 1699.735 397.83 1685.027 307.748 984.592 250 991.946 327.969 857.741 940.162 673.899 778.381 254.788 981.731 435.317 1207.301" style="fill-rule:evenodd;fill:#d39b76"></polygon>
  <polygon points="850.506 1261.734 857.741 940.162 435.317 1207.301 850.506 1261.734" style="fill:#e1ccb7;fill-rule:evenodd"></polygon>
  <polygon points="857.741 940.162 850.506 1261.732 1265.696 1316.166 1555.841 1028.253 857.741 940.162" style="fill:#e1ccb7;fill-rule:evenodd"></polygon>
  <path d="M1699.7470492 407.4069962c-.3148375 0-.6317532-.015586-.9517861-.0477971l-707.7901214-69.860684c-5.2628784-.5184948-9.1084683-5.2067687-8.5889344-10.4696471.5184948-5.2639174 5.2015734-9.1178199 10.4696471-8.5889344l707.7901214 69.860684c5.2628784.5184948 9.1084683 5.2067687 8.5889344 10.4696471-.4873228 4.9438846-4.6529456 8.6367315-9.517861 8.6367315ZM1269.1074804 1326.270232l-861.2801768-112.914458 447.701062-283.1251924 721.0039465 90.9818151-307.4248318 305.0578353ZM462.8064587 1201.2464779l799.4785025 104.8138855 272.865437-270.76652-675.1976819-85.2004419-397.1462576 251.1530763Z" style="fill:#333"></path>
  <path d="M1273.5276748 1750c-5.2057296 0-9.4742201-4.1718572-9.5698144-9.3994073l-7.9312045-429.4332111 293.1916811-199.8293618c4.368241-2.9779683 10.3252167-1.8516188 13.3052631 2.5197394 2.9790074 4.3692801 1.8505797 10.3272948-2.5197394 13.3052631l-284.6380751 194.0001914 7.740016 419.0840959c.0976724 5.287816-4.1095131 9.6529398-9.3973291 9.7506122-.0602659.0010391-.1205319.0020781-.1807978.0020781ZM850.5096682 1271.3097801c-.0727347 0-.1454695-.0010391-.2192433-.0020781-5.287816-.1194928-9.4773373-4.5022807-9.3588836-9.7890577l7.235029-321.5717398c.1194928-5.2867769 4.4576008-9.3890166 9.7890577-9.3588836 5.287816.1194928 9.4773373 4.5022807 9.3588836 9.7890577l-7.235029 321.5717398c-.1174147 5.2140422-4.3817489 9.3609618-9.5698144 9.3609618Z" style="fill:#333"></path>
</svg>
