<svg xmlns="http://www.w3.org/2000/svg" id="tear-top-container" width="2000" height="2000" version="1.1" viewBox="0 0 2000 2000">
  <polygon points="891.121 1666.434 1718.451 1429.058 1740.482 824.021 1370.748 607.384 1361.724 462.989 1036.833 333.566 259.517 443.435 259.515 565.27 566.04 763.814 564.98 1357.226 891.121 1666.434" style="fill-rule:evenodd;fill:#dd8668"></polygon>
  <polygon points="1370.748 607.384 1383.98 905.24 1740.482 824.021 1370.748 607.384" style="fill:#e1ccb7;fill-rule:evenodd"></polygon>
  <polygon points="1383.98 905.24 1370.748 607.384 566.04 763.814 903.033 1014.81 1383.98 905.24" style="fill:#e1ccb7;fill-rule:evenodd"></polygon>
  <polygon points="566.04 763.814 1370.748 607.384 1036.642 442.013 418.429 542.247 517.15 603.633 566.04 763.814" style="fill:#e1ccb7;fill-rule:evenodd"></polygon>
  <polygon points="1036.642 442.013 1370.748 607.384 1361.724 462.989 1036.833 333.566 1036.642 442.013" style="fill:#e1ccb7;fill-rule:evenodd"></polygon>
  <polygon points="418.429 542.247 1036.642 442.013 1036.833 333.566 259.517 443.435 418.429 542.247" style="fill:#e1ccb7;fill-rule:evenodd"></polygon>
  <path d="M900.867572,1025.0633042l-357.78112-266.4794519,825.8449084-160.5393687c5.1592721-1.0056296,10.1543809,2.3643653,11.1569131,7.5246699,1.0025322,5.1582397-2.3664302,10.1533485-7.5246699,11.1548482l-783.570264,152.3208763,316.2033955,235.5134943,833.1723757-189.814134c5.1282979-1.1605007,10.2235567,2.0401685,11.3912847,7.163304,1.1666955,5.1252005-2.0401685,10.2256216-7.1643365,11.3923172l-841.7284871,191.7634447Z" style="fill:#333"></path>
  <path d="M1383.9734728 914.7558564c-5.0611871 0-9.2716157-3.9874143-9.49876-9.0919653l-13.2332181-297.8563341c-.2333391-5.2511623 3.8335756-9.696995 9.0837055-9.9282691 5.2480649-.2828979 9.69493 3.8325432 9.9282691 9.0816405l13.2332181 297.8563341c.2333391 5.2511623-3.8335756 9.696995-9.0837055 9.9282691-.1435139.0082598-.2870277.0103247-.4295091.0103247ZM891.1241156 1675.9493133c-.058851 0-.117702 0-.176553-.0020649-5.2542597-.0949876-9.4357791-4.433443-9.339759-9.6866702l11.9116515-651.6231954c.0939551-5.1954087 4.3363904-9.341824 9.5101172-9.341824.058851 0 .117702 0 .176553.0020649 5.2542597.0949876 9.4357791 4.433443 9.339759 9.6866702l-11.9106191 651.6231954c-.0960201 5.1954087-4.3363904 9.341824-9.5111497 9.341824ZM566.0362821 773.3317097c-4.076207 0-7.8457693-2.6390033-9.0981601-6.7399897l-47.8458736-156.764644-254.599807-158.31129c-4.4633847-2.7752899-5.8314127-8.6418066-3.0561228-13.1041589 2.77116-4.4623522 8.6397417-5.8334776 13.1041589-3.0561228l260.6686887 162.0818847 49.9314709 163.5996213c1.5332238 5.026083-1.2978197 10.3433237-6.3239027 11.8775799-.9250966.2828979-1.860518.4171195-2.7804522.4171195Z" style="fill:#333"></path>
  <path d="M1370.7402547,616.9015872c-1.4175867,0-2.8568553-.318002-4.213526-.98911l-331.3725022-164.0188057-615.2026782,99.7473047c-5.1861165.8363039-10.0748804-2.6823672-10.9153142-7.8715811-.8414662-5.1871489,2.6823672-10.0728155,7.8695162-10.9153142l621.224066-100.7219601,336.8384191,166.7238874c4.710146,2.3313261,6.6377748,8.0388419,4.3074812,12.7489879-1.6602181,3.3534753-5.0312454,5.2965912-8.5354618,5.2965912Z" style="fill:#333"></path>
  <path d="M1036.6420213,451.5281757h-.0165196c-5.2552922-.0103247-9.5080523-4.2765069-9.49876-9.5317992l.1910077-108.4469299c.0092923-5.2490974,4.2672147-9.49876,9.5152796-9.49876h.0165196c5.2552922.0103247,9.5080523,4.2765069,9.49876,9.5317992l-.1910077,108.4469299c-.0092923,5.2490974-4.2682472,9.49876-9.5152796,9.49876Z" style="fill:#333"></path>
</svg>
