<svg xmlns="http://www.w3.org/2000/svg" id="tuck-top-box" width="2000" height="2000" version="1.1" viewBox="0 0 2000 2000">
  <polygon points="665.471 731.058 738.025 450.846 1099.042 421.367 1740.483 703.223 1670.65 989.028 1463.401 1149.479 1411.587 1119.395 963.661 1569.118 278.398 1231.377 259.518 957.272 665.471 731.058" style="fill-rule:evenodd;fill:#dd8668"></polygon>
  <polygon points="526.851 1065.159 816.32 882.659 824.669 813.916 665.471 731.058 259.518 957.272 526.851 1065.159" style="fill:#e1ccb7;fill-rule:evenodd"></polygon>
  <polygon points="816.32 882.659 1167.583 1056.612 1214.307 1016.715 824.669 813.916 816.32 882.659" style="fill:#e1ccb7;fill-rule:evenodd"></polygon>
  <polygon points="1167.583 1056.612 816.32 882.659 526.851 1065.157 955.148 1238.003 1167.583 1056.612" style="fill:#e1ccb7;fill-rule:evenodd"></polygon>
  <path d="M1541.8375345,815.4444522l-807.6490485-355.8908631c-4.8092662-2.1196702-6.9898524-7.7363314-4.8712147-12.5445652,2.1176052-4.8092662,7.733234-6.9888199,12.5445652-4.8712147l799.3706679,352.2441631,194.9187961-99.6317244c4.6802069-2.3953408,10.4125053-.5368867,12.8037163,4.1412552,2.3922434,4.6802069.5379192,10.4125053-4.1412552,12.8037163l-202.9762271,103.7492327Z" style="fill:#333"></path>
  <path d="M1463.4097389 1158.997245c-.6969203 0-1.4041653-.0774356-2.1124428-.2374691-5.1252034-1.1625663-8.3372316-6.2588604-7.1756978-11.3840638l78.1335403-344.5666827c1.1615338-5.1252034 6.2629903-8.3351666 11.3840638-7.1756978 5.1252034 1.1625663 8.3372316 6.2588604 7.1756978 11.3840638l-78.1335403 344.5666827c-1.0015003 4.4169259-4.9259358 7.4131669-9.271621 7.4131669ZM1411.5784865 1128.9130029c-1.479536 0-2.9817864-.345879-4.3849192-1.0768709l-746.1156332-388.3374067c-4.6616224-2.4263151-6.4736151-8.1720357-4.0473-12.833658 2.4252826-4.6595574 8.1720357-6.4736151 12.833658-4.0473l746.1156332 388.3374067c4.6616224 2.4263151 6.4736151 8.1720357 4.0473 12.833658-1.6953231 3.2574571-5.0126637 5.1241709-8.4487388 5.1241709Z" style="fill:#333"></path>
  <path d="M956.9386647,1248.98669L255.9566219,966.0948716c-4.8732796-1.9668639-7.2293865-7.511252-5.2625225-12.3845316,1.9658314-4.8743121,7.5164144-7.2314514,12.3845316-5.2625225l690.2794122,278.5719451,254.7703104-217.5413449c3.9956763-3.4112958,10.002613-2.9384224,13.4149412,1.0582864,3.4123282,3.9956763,2.9384224,10.002613-1.0582864,13.4149412l-263.5463437,225.0350448Z" style="fill:#333"></path>
  <path d="M963.6569763 1578.6330837c-5.1427555 0-9.3748685-4.0999562-9.5080577-9.2705885l-8.5127523-331.1145725c-.1352542-5.2532303 4.0142609-9.6216299 9.2674911-9.756884 5.2315483-.1342217 9.6216299 4.0132284 9.756884 9.2674911l8.5127523 331.1145725c.1352542 5.2532303-4.0142609 9.6216299-9.2674911 9.756884-.0836304.0020649-.1662284.0030974-.2488264.0030974ZM1167.5779176 1066.129261c-1.41862 0-2.8578894-.3180021-4.2155934-.990143l-357.3001908-176.9423826 9.1601138-75.4274247c.6339393-5.2170937 5.3822896-8.9360668 10.5931884-8.29903 5.2170937.6339393 8.9319369 5.3760947 8.29903 10.5931884l-7.5370639 62.0568799 345.2305638 170.9643552c4.7091162 2.3323599 6.6367461 8.0409114 4.3043862 12.7500276-1.660219 3.3524447-5.0312482 5.2945292-8.5344342 5.2945292Z" style="fill:#333"></path>
  <path d="M526.8603789,1074.6750525c-3.159372,0-6.2495682-1.5714262-8.0584635-4.4417053-2.8021358-4.4448027-1.4712762-10.3206151,2.974559-13.1237834l289.468681-182.5001928c4.4458352-2.8031683,10.3216476-1.4723086,13.1237834,2.974559,2.8021358,4.4448027,1.4712762,10.3206151-2.974559,13.1237834l-289.468681,182.5001928c-1.5755561.9932405-3.3307627,1.4671463-5.0653199,1.4671463Z" style="fill:#333"></path>
</svg>
