<svg xmlns="http://www.w3.org/2000/svg" id="wide-open-box" width="2000" height="2000" version="1.1" viewBox="0 0 2000 2000">
  <polygon points="836.38 259.519 259.516 436.633 259.516 745.988 660.678 1216.332 654.4 1508.26 1231.976 1740.485 1740.483 1406.556 1740.483 1116.512 1175.475 967.723 1353.351 737.947 836.38 259.519" style="fill-rule:evenodd;fill:#dd8668"></polygon>
  <polygon points="454.156 665.691 794.704 547.899 841.974 264.695 836.38 259.519 259.516 436.633 454.156 665.691" style="fill:#e1ccb7;fill-rule:evenodd"></polygon>
  <polygon points="794.704 547.899 1175.475 967.723 1353.351 737.947 841.974 264.695 794.704 547.899" style="fill:#e1ccb7;fill-rule:evenodd"></polygon>
  <polygon points="1175.475 967.723 794.704 547.899 454.156 665.691 761.02 1026.818 660.678 1216.332 1175.475 967.723" style="fill:#e1ccb7;fill-rule:evenodd"></polygon>
  <polygon points="1175.475 967.723 660.678 1216.332 1003.088 1338.093 1177.736 1242.128 1175.475 967.723" style="fill:#e1ccb7;fill-rule:evenodd"></polygon>
  <polygon points="1175.475 967.723 1177.736 1242.128 1416.492 1313.091 1740.483 1116.512 1175.475 967.723" style="fill:#e1ccb7;fill-rule:evenodd"></polygon>
  <polygon points="1416.492 1313.091 1177.736 1242.128 1003.088 1338.095 1237.75 1421.541 1416.492 1313.091" style="fill:#e1ccb7;fill-rule:evenodd"></polygon>
  <path d="M1238.8203654,1432.0207641l-4.2599867-1.5136067-577.0702229-205.2103755c-4.9517441-1.7614004-7.5370583-7.2025377-5.7777231-12.1542823,1.7634651-4.9517447,7.2025368-7.5308644,12.1542809-5.7777237l572.8102362,203.6967688,498.8706618-302.686233c4.4912608-2.7216011,10.3453869-1.2947222,13.0711176,3.200669,2.7257307,4.4912613,1.2926571,10.3433232-3.2006686,13.0711191l-506.5976953,307.3736644Z" style="fill:#333"></path>
  <path d="M1231.9791944 1750c-.0598835 0-.117702 0-.1755205-.0020649-5.2552913-.0949876-9.43681-4.4313778-9.3418224-9.6846049l5.7735932-318.9435665c.0929226-5.1954085 4.3343248-9.3438885 9.5090831-9.3438885.0598835 0 .117702 0 .1755205.0020649 5.2552913.0949876 9.43681 4.4313778 9.3418224 9.6846049l-5.7735932 318.9435665c-.0929226 5.1954085-4.3343248 9.3438885-9.5090831 9.3438885ZM660.6846296 1225.848123c-3.537255 0-6.9340936-1.9802849-8.5736619-5.3791888-2.2858969-4.7328602-.3035473-10.4217912 4.4293123-12.7056234l514.7955368-248.6073169c4.7307947-2.2879621 10.4217899-.3035473 12.7056218 4.4293129 2.2858969 4.7328602.3035473 10.4217912-4.4293123 12.7056234l-514.7955368 248.6073169c-1.3339561.6442637-2.7443152.949876-4.1319599.949876Z" style="fill:#333"></path>
  <path d="M660.6701749 1225.848123c-1.5012168 0-3.0251481-.357236-4.443767-1.1088769-4.6440669-2.4572878-6.4157918-8.216427-3.9564394-12.8604945l97.3230397-183.8133871L252.2648622 442.7951646c-3.4030334-4.0039336-2.9157058-10.0108666 1.0882273-13.4118355 4.0039332-3.4071638 10.0088004-2.9157062 13.4118339 1.0882275l505.6829236 595.0993511-103.3609461 195.2118986c-1.7056466 3.2254484-5.0054327 5.0653168-8.4167259 5.0653168ZM1175.4760365 977.2387411c-2.5915091 0-5.1726934-1.0510584-7.0497307-3.122201l-383.8675418-423.2378815 48.8938264-292.929355c.865213-5.1850837 5.7901127-8.6831052 10.9524814-7.8178921 5.1830182.8652131 8.6831042 5.767399 7.8178912 10.9524828l-47.3740251 283.8353252 377.6726993 416.4111643c3.5310602 3.8924265 3.2378376 9.9117491-.6545884 13.4407448-1.8233486 1.6519582-4.1113104 2.4676125-6.3910125 2.4676125Z" style="fill:#333"></path>
  <path d="M454.1568424 675.2070965c-3.9440497 0-7.6299809-2.4696775-8.9928463-6.4075328-1.7180363-4.9661993.9168367-10.3846221 5.8830354-12.1026586l340.5470086-117.7908133c4.9661987-1.7139066 10.3846209.9168368 12.1026572 5.8830361 1.7180363 4.9661993-.9168367 10.3846221-5.8830354 12.1026586l-340.5470086 117.7908133c-1.0283438.355171-2.0794021.5244967-3.1098109.5244967ZM1003.0962857 1347.6098308c-3.3596696 0-6.6160917-1.7820499-8.3485827-4.9352251-2.5295607-4.6048334-.8466285-10.390817 3.7582044-12.9203779l169.6684747-93.2282601-2.2156886-268.7240377c-.0433639-5.255292 4.1815186-9.5503832 9.43681-9.5937472h.080533c5.2181223 0 9.4698491 4.2083635 9.513213 9.4368111l2.3086113 280.0853801-179.6277164 98.7003716c-1.453723.7991348-3.0251481 1.1790852-4.5738587 1.1790852Z" style="fill:#333"></path>
  <path d="M1416.4967064,1322.6053787c-.8982522,0-1.8109589-.1280268-2.7154059-.39647l-238.7574875-70.9598638c-5.0364069-1.4970871-7.9066839-6.793678-6.409597-11.8321505,1.4970869-5.0364075,6.7998721-7.9046199,11.8321491-6.4095978l238.7574875,70.9598638c5.0364069,1.4970871,7.9066839,6.793678,6.409597,11.8321505-1.2286438,4.1319604-5.0157574,6.8060677-9.1167431,6.8060677Z" style="fill:#333"></path>
</svg>
