<svg xmlns="http://www.w3.org/2000/svg" width="354.032" height="269.74" viewBox="0 0 354.032 269.74">
  <g id="_14" data-name="14" transform="matrix(0.966, 0.259, -0.259, 0.966, 31.305, 0)" opacity="0.237">
    <path id="Fill_489" data-name="Fill 489" d="M5.486,84.428a.821.821,0,0,1-.727-.356A1.251,1.251,0,0,1,4.8,82.883a1.491,1.491,0,0,0,.143-1.254,1.539,1.539,0,0,0-1.068-.738A5.056,5.056,0,0,1,.166,77.812c-.471-1.516.069-3.33,1.521-5.11,2.2-2.689,4.455-5.4,6.637-8.03,2.028-2.439,4.118-4.954,6.158-7.444,3.849-4.7,8.313-10.17,12.583-15.587a19.42,19.42,0,0,1,4.887-4.759,7.373,7.373,0,0,1,3.651-1.14,3.006,3.006,0,0,1,2.853,1.6,29.54,29.54,0,0,0,3.12,4.485c1.767,2.232,3.595,4.54,4.214,7.5.285,1.365.711,2,1.34,2a4.494,4.494,0,0,0,2.125-1.159l.044-.033C58.63,43.086,69.649,35.2,82.359,30.8c.113-.039.229-.087.331-.13.125-.052.252-.106.38-.146C87.383,29.141,90.5,28.5,92.882,28.5c6.2,0,8.207,4.224,12.212,12.639.5,1.059.868,1.953,1.16,2.672.607,1.494.912,2.244,1.558,2.244.678,0,1.749-.855,3.882-2.558l.064-.051.811-.647c2.272-1.806,4.5-3.744,6.652-5.618a109.34,109.34,0,0,1,12.307-9.71l.3-.192c4.693-3.025,9.546-6.153,15.391-6.153a17.124,17.124,0,0,1,2.589.2c5.465.842,9.225,4.47,12.321,7.806,2.5,2.693,5.068,4,7.852,4,2.692,0,5.626-1.258,8.97-3.847,3.749-2.9,7.4-6.058,10.932-9.11,2.381-2.058,4.84-4.183,7.307-6.212,3.161-2.6,5.683-3.816,7.937-3.816,3.009,0,5.727,2.071,9.089,6.923.495.714.949,1.478,1.388,2.216a25.53,25.53,0,0,0,2.13,3.2,8.312,8.312,0,0,0,6.49,3.445,10.674,10.674,0,0,0,5.031-1.444c1.285-.694,2.613-1.354,3.9-1.993a58.433,58.433,0,0,0,8.493-4.834,3.275,3.275,0,0,0,.407-.386c.3-.312.6-.634.962-.634a1.037,1.037,0,0,1,.776.518c.595.792.107,1.629-.324,2.368l-.062.107-.016.028c-1.2,2.071-1.2,2.071,1.059,4.88a6.728,6.728,0,0,1,.826-3.42c.66-1.482,1.283-2.881-.081-4.678a.837.837,0,0,1-.208-.68c.095-.471.717-.831,1.32-1.18a4.881,4.881,0,0,0,1.062-.737A93.074,93.074,0,0,1,262.8.894,5.433,5.433,0,0,1,265.93,0a12.752,12.752,0,0,1,5.14,1.323c.339.156,1.414.747,1.01,1.821-.148.4-.345.581-.62.581a1.649,1.649,0,0,1-.617-.185l-.019-.008a1.64,1.64,0,0,0-.594-.174l-.05,0-.239.018h-.018a2.764,2.764,0,0,0-2.291.984c.329.28.654.571.968.854,1.67,1.5,3.238,2.911,5.791,3.051,1.754.094,1.678,1.712,1.623,2.894a6.914,6.914,0,0,0-.011.7c.127,1.935,1.185,2.829,2.306,3.775.3.256.616.52.917.81.286.275.538.569.782.854a3.217,3.217,0,0,0,2.429,1.531,3.771,3.771,0,0,0,1.313-.271,1.647,1.647,0,0,1,.578-.1,3.16,3.16,0,0,1,2.761,1.938,1.631,1.631,0,0,1-1.15.526,3.231,3.231,0,0,1-1.415-.483,5.17,5.17,0,0,0-.936-.411,2.58,2.58,0,0,0,.507,2.59,4.415,4.415,0,0,0,2.067.769c.351.07.714.143,1.044.244a5.581,5.581,0,0,0,.659.143c.764.135,1.555.274,1.667,1.362.089.842-.436.966-.991,1.1-.487.115-.99.234-1.186.815,1.567.425,2.5,1.1,2.569,1.847.058.667-.585,1.335-1.86,1.933a2.142,2.142,0,0,0-1.186,2.066c-.086.805-.167,1.566-1.268,1.878a5.3,5.3,0,0,0-1.027-2.943c-.151-.259-.307-.526-.451-.8-1.131.516-.849,1.232-.577,1.925a1.692,1.692,0,0,1,.164,1.32l-.03,0-.1,0a2.83,2.83,0,0,1-1.828-.9l-.016-.014A2.756,2.756,0,0,0,280,32.5a2.309,2.309,0,0,0-1.033.274,4.8,4.8,0,0,1,1.168-1.5c.524-.522.976-.973.844-1.3s-.868-.5-2.312-.522a2.633,2.633,0,0,1-1.541-.837,2.82,2.82,0,0,0-1.73-.9,2.248,2.248,0,0,0-1.4.605.378.378,0,0,1-.231.1c-.4,0-.52-1.068-.529-1.353a4.628,4.628,0,0,0-4.684-4.665h-.139c-.532,0-1.1-.057-1.7-.117l-.053-.005c-.559-.056-1.191-.12-1.807-.12a4.009,4.009,0,0,0-4.278,3.118,5.685,5.685,0,0,1-1.976,2.267c-.2.166-.4.326-.579.485-.266.231-.548.44-.821.642-1.177.872-2.288,1.694-1.691,4a2.431,2.431,0,0,1-.549,1.991,3.1,3.1,0,0,1-2.464,1.2,3.846,3.846,0,0,1-1.031-.147,5.949,5.949,0,0,0-1.578-.24,2.56,2.56,0,0,0-1.949.73,3.426,3.426,0,0,0-.712,2.636c.032.547-.02.872-.163,1.024a.438.438,0,0,1-.345.118c-.07,0-.146-.006-.225-.013-.1-.009-.185-.017-.277-.017a1.032,1.032,0,0,0-.447.089,4.791,4.791,0,0,1-2.013.376,17.05,17.05,0,0,1-1.736-.121,16.828,16.828,0,0,0-1.734-.122,4.179,4.179,0,0,0-3.791,1.961c-.106.158-.211.309-.31.452-.563.816-.969,1.4-.774,1.8.175.353.843.538,2.166.6-1.189.355-2.4.709-3.573,1.05-2.659.775-5.408,1.577-8.082,2.459a4.932,4.932,0,0,1-1.536.266c-1.418,0-2.6-.72-3.819-2.334a5.432,5.432,0,0,1-.354-.553c-.31-.533-.578-.994-1.4-.994a3.24,3.24,0,0,0-.652.075,2.2,2.2,0,0,1-.436.044c-1.469,0-2.7-1.519-3.113-2.948a14.134,14.134,0,0,0-2.992-4.965c-.434-.533-.882-1.085-1.3-1.654a3.871,3.871,0,0,0-3.014-1.9,3.514,3.514,0,0,0-2.682,1.5,49.615,49.615,0,0,1-6.28,6.117,42.877,42.877,0,0,0-7.041,7.125,5.929,5.929,0,0,1-2.5,1.7c-1.472.672-2.993,1.367-3.032,3.575-.3-.02-.615-.06-.916-.1a10.324,10.324,0,0,0-1.291-.112,3.573,3.573,0,0,0-.708.064c-2.066.409-4.131,1-6.24,1.618a5.686,5.686,0,0,1-1.562.281c-1.267,0-1.891-.845-2.023-2.741-.3,2.225-1.085,3.217-2.538,3.217a6.881,6.881,0,0,1-2.167-.463,4.2,4.2,0,0,0-.88-.161c-.741-.084-1.44-.163-1.389-1.025A2.1,2.1,0,0,1,167.91,52.5a1.664,1.664,0,0,1,.718.171,3.337,3.337,0,0,0,1.318.4.7.7,0,0,0,.532-.2,1.384,1.384,0,0,0,.255-1.015c-.025-.723-.32-1.074-.9-1.074a3.721,3.721,0,0,0-1.02.208,3.763,3.763,0,0,1-.463.121,15.628,15.628,0,0,1-2.335.185c-4.157,0-7.3-1.933-9.621-5.911a3.749,3.749,0,0,0-3.37-1.9,5.056,5.056,0,0,0-1.918.393c-6.618,2.733-12.879,5.607-16.739,10.676a30.137,30.137,0,0,1-4.674,4.616,33,33,0,0,0-3.986,3.795,21.539,21.539,0,0,1-3.461,3.074,18.318,18.318,0,0,0-4.351,4.193c-.791,1.177-2.835,1.879-5.468,1.879-2.527,0-5.629-.731-6.863-2.366a51.52,51.52,0,0,0-4.389-4.88c-2.987-3.049-6.075-6.2-7.385-10.607-.266-.894-.711-1.328-1.361-1.328a3.431,3.431,0,0,0-1.638.586q-1.149.667-2.294,1.34c-1.4.822-2.852,1.671-4.29,2.485-.229.13-.452.28-.667.426a3.411,3.411,0,0,1-1.915.793,2.647,2.647,0,0,1-1.171-.3,1.845,1.845,0,0,0-.8-.208c-.83,0-1.321.768-1.8,1.51a7.723,7.723,0,0,1-.523.753,1.969,1.969,0,0,0-.231,1.069c-.023.478-.045.929-.358.929a.381.381,0,0,1-.049,0,4.682,4.682,0,0,0-.629-.045c-1.867,0-2.593,1.327-3.294,2.611a5.333,5.333,0,0,1-1.76,2.208l-.1.058a3.285,3.285,0,0,1-2.062.693c-.386,0-.9-.033-1.612-.078l-.067,0-.065,0a4.241,4.241,0,0,0-2.179,1.245,43.943,43.943,0,0,1-16.694,9.287,7.165,7.165,0,0,1-1.983.319,3.663,3.663,0,0,1-3.405-2.2,26.559,26.559,0,0,0-5.606-6.483c-1.074-1-2.185-2.029-3.182-3.138-.606-.678-1.051-.967-1.487-.967-.457,0-.907.326-1.414,1.025A48.091,48.091,0,0,1,18.034,79.24a2.594,2.594,0,0,0-.852,1.526c-.232.763-.473,1.551-1.3,1.749-3.524.847-7.127,1.434-10.187,1.9A1.4,1.4,0,0,1,5.486,84.428ZM92.293,51.377a15.112,15.112,0,0,0-9.058,5.093q4.467-2.515,8.934-5.023l.125-.07h0ZM90.161,34.355c-4.776,0-9.35,1.783-13.984,5.452l7.374-2.249,7.282-2.221c-.086-.263-.17-.528-.254-.791l-.06-.188Q90.34,34.355,90.161,34.355Zm151.994-2.862a.222.222,0,0,0-.207.082c-.064.105-.008.321.17.661a1.943,1.943,0,0,0,1.171.556c.039,0,.053-.008.058-.015A6.816,6.816,0,0,1,245.629,31c1.547-.891,3.146-1.812,3.446-4.434-.844.692-1.628,1.33-2.372,1.935-1.321,1.074-2.515,2.044-3.719,3.019a.3.3,0,0,1-.188.047,2.016,2.016,0,0,1-.3-.035l-.018,0A1.936,1.936,0,0,0,242.155,31.492Zm-8.29-4.417a36.3,36.3,0,0,0-3.446,1.147,15.966,15.966,0,0,1-5,1.28,2.26,2.26,0,0,0-1.7.531.943.943,0,0,0-.176.783c.136.875,1.178.944,2.1,1l.085.006c.228.016.454.023.671.023,3.021,0,5.324-1.472,7.466-4.773Zm7.41-4.412c-.419.224-.863.417-1.292.6-1.57.682-3.193,1.387-3.9,3.778a7.812,7.812,0,0,1,2.247-.389c1.129-.086,2.195-.167,2.75-.912C241.529,25.136,241.594,24.128,241.276,22.663Zm14.777-6.395a1.752,1.752,0,0,1,.543.11c1.095.37,1.541,1.4,1.4,3.241.77-1.134,1.305-2,1.129-2.828-.13-.611-.649-1.178-1.63-1.785a7.658,7.658,0,0,0-1.108-.519c-1.266-.517-2.7-1.1-2.65-3.072a.2.2,0,0,0-.051-.151.3.3,0,0,0-.223-.07,1.967,1.967,0,0,0-.991.385,1.114,1.114,0,0,1-.306.136c-.2.067-.4.136-.451.3-.042.13.016.305.179.534,1.8,2.539.576,4.281-1.812,6.115a2.133,2.133,0,0,1,.491-.057,4.64,4.64,0,0,1,1.494.34,4.672,4.672,0,0,0,1.472.342,2.229,2.229,0,0,0,1.785-1.014,1.608,1.608,0,0,0,.165-.937,1.4,1.4,0,0,1,.188-.939A.5.5,0,0,1,256.052,16.268Z" transform="translate(0 0)" fill="#1baaa0"/>
    <path id="Fill_491" data-name="Fill 491" d="M4.691,92.362a1.966,1.966,0,0,1-.312-.025c-.9-.144-1.328-1.1-1.3-2.91.016-1.036-.689-1.495-1.435-1.98C.786,86.886-.1,86.307.01,84.786a17.348,17.348,0,0,1,3-8.5c3.248-4.814,5.029-10.269,6.751-15.544.4-1.217.8-2.464,1.222-3.683.664-1.934,1.264-3.21,3.457-3.314q.18-.009.349-.009c1.852,0,2.8.79,4.121,2.451C21.6,59.573,23,63.3,24.477,67.254l.069.184a3.637,3.637,0,0,0,3.543,2.722,5.2,5.2,0,0,0,.93-.089c5.511-1,9.786-2.544,12.735-6.79,5.11-7.357,12.532-12.16,19.71-16.805q1.3-.843,2.6-1.692a31.858,31.858,0,0,0,3.8-3.119c.55-.5,1.118-1.017,1.686-1.5a11.238,11.238,0,0,1,7.255-2.709l.172,0c2.483,0,4.145,1.231,5.557,4.116,2.375,4.85,4.569,6.739,7.824,6.739a18.073,18.073,0,0,0,6.225-1.482c1.974-.756,3.974-1.543,5.909-2.3,5.887-2.315,11.973-4.709,18.11-6.569,1.206-.366,2.4-.843,3.563-1.3a22.3,22.3,0,0,1,7.87-2.048c.188,0,.375-.005.561-.005,3.068,0,6.175.421,8.126,3.478a6.058,6.058,0,0,0,5.466,3.12,12.947,12.947,0,0,0,2.836-.365,118.669,118.669,0,0,0,25.792-9.046A120.621,120.621,0,0,1,194.2,24a20.124,20.124,0,0,1,5.5-.847,12.1,12.1,0,0,1,8.795,3.535,10.347,10.347,0,0,0,7.588,3.141,18.145,18.145,0,0,0,4.034-.508c10.717-2.441,20.874-6.906,30.7-11.224l.718-.316c4.557-2,9.118-4.2,13.529-6.319,7.142-3.437,14.526-6.99,22.091-9.821.254-.1.509-.193.763-.29A15.394,15.394,0,0,1,293.332,0a7.417,7.417,0,0,1,2.928.6c-.958,2.127-2.673,2.532-4.33,2.923-.292.069-.595.14-.885.221a51.894,51.894,0,0,0-11.509,4.725l-.14.076c-.332.178-.786.422-.874.776a.647.647,0,0,0,.123.523c.17.255.34.374.535.374a1.356,1.356,0,0,0,.659-.289,3.611,3.611,0,0,1,.5-.286c1.214-.529,2.421-1.15,3.589-1.751,3.21-1.652,6.527-3.359,10.363-3.359.223,0,.45.006.674.017q.088,0,.18,0c.222,0,.457-.016.66-.031s.441-.029.645-.029a1.279,1.279,0,0,1,1.062.362c.249.335.239.93-.029,1.82a.692.692,0,0,0,.016.548c.139.252.494.35.837.444a2.131,2.131,0,0,1,.677.267c.392.29,1.049.829,1.051,1.182a.249.249,0,0,1-.108.208,5.277,5.277,0,0,0-1.493,2.319c-.384.912-.747,1.774-1.529,2.093a88.43,88.43,0,0,0-16.882,9.107,60.065,60.065,0,0,1-6.169,3.578c-4.1,2.165-8.339,4.4-11.245,8.394-.1-.006-.206-.01-.316-.01-2.116,0-3.491,1.3-4.945,2.686l-.1.1c-1.374,1.307-2.93,2.788-5.345,2.788-.064,0-.129,0-.195,0l-.137,0c-2.279,0-4.107,1.8-5.876,3.546a26.069,26.069,0,0,1-2.078,1.911c-4.68,3.691-9.863,4.91-15.352,6.2l-.571.134a22.427,22.427,0,0,1-6.17.927c-5.049,0-9.534-2.088-13.333-6.207-1.412-1.534-2.716-2.279-3.986-2.279a3.364,3.364,0,0,0-1.034.166,40.472,40.472,0,0,1-6.712,1.357,31.082,31.082,0,0,0-8.933,2.216c-2.619,1.224-5.222,2.6-7.74,3.923-4.94,2.6-10.048,5.3-15.513,6.994-2.2.687-4.462,1.354-6.648,2-.938.277-1.869.552-2.805.831a.882.882,0,0,0,.085.718c.173.22.506.239.859.258.44.024.895.049,1.026.492a3.9,3.9,0,0,0-.365.173,1.524,1.524,0,0,1-.627.225.445.445,0,0,1-.085-.008c-1.183-.241-2.425-.4-3.626-.563-4.139-.547-8.417-1.112-11.21-4.9a8.758,8.758,0,0,0-2.512-2.114,9.005,9.005,0,0,1-2.344-1.915.984.984,0,0,0-.774-.225,11.918,11.918,0,0,0-3.857.992c-3.623,1.577-7.282,3.234-10.822,4.836-4.486,2.031-9.117,4.128-13.72,6.083A41.757,41.757,0,0,1,99.752,68.2c-.641.145-1.3.294-1.951.449a5.486,5.486,0,0,1-1.244.181,2.8,2.8,0,0,1-2.308-1.312l-.082-.107c-.607-.789-1.624-2.11-2.9-2.11a2.757,2.757,0,0,0-1.951,1.028,3.822,3.822,0,0,0-2.705-1.063c-1.369-.169-2.784-.343-3.58-2.2-.809-1.892-2.022-2.774-3.818-2.774a13.8,13.8,0,0,0-4.3.995,18.26,18.26,0,0,0-6.2,4.313,17.72,17.72,0,0,1-5.889,4.134,3.665,3.665,0,0,0-1.94,2.244l-.077.194c-.276.7-.655,1.661-1.057,1.7-2.616.242-3.456,2.082-4.269,3.86a7.956,7.956,0,0,1-1.828,2.86l-.764.652c-3.349,2.863-6.813,5.824-11.308,7.026-1.428.381-1.455.447-2.129,2.128l-.115.286c-.152.379-.973.6-1.243.672a7.738,7.738,0,0,1-2.008.313c-1.916,0-3.34-1.158-5.807-3.755a2.922,2.922,0,0,0-2.028-.448h-.539a7.8,7.8,0,0,1-.976-.047c-2.493-.336-3.883-2.082-5.228-3.771A11.843,11.843,0,0,0,18.4,80.6a3.537,3.537,0,0,1-.58-.492c-.291-.281-.592-.572-.82-.572-.13,0-.226.091-.294.279-.623,1.72-2.09,2.587-3.507,3.425-1.482.876-3.014,1.782-3.559,3.664a8.589,8.589,0,0,1-1.6,2.67c-.142.183-.276.357-.406.529C6.879,91.107,5.943,92.362,4.691,92.362ZM38.269,71.75h0c-1.051.413-2.065.707-3.045.991a16.663,16.663,0,0,0-6.01,2.7,19.241,19.241,0,0,0,2.462.182,6.823,6.823,0,0,0,6.594-3.874ZM108.7,62.7c-3.4.476-6.975,1.208-10.083,3.33A18.066,18.066,0,0,0,108.7,62.7Zm59.289-7.681-7.1,2-.692.2-5.183,1.462a11.492,11.492,0,0,0,1.936.156,19.168,19.168,0,0,0,11.036-3.814h0ZM117.463,44.8l-.145.092c-4.633.117-8.877,1.864-12.982,3.554-3.566,1.468-7.253,2.986-11.182,3.43a2.085,2.085,0,0,0-1.463.827,1.106,1.106,0,0,0-.154.946,1.322,1.322,0,0,0,1.434.964,4.512,4.512,0,0,0,1.151-.177c1.908-.508,3.822-1.138,5.672-1.747,2.2-.724,4.472-1.472,6.728-2.011,3.4-.813,6.093-2.632,8.695-4.391.686-.464,1.39-.94,2.1-1.394.035,0,.064,0,.092,0h.139l.056-.061.02-.021c.123,0,.243,0,.363,0,3.673,0,6.91-1.273,10.338-2.621.952-.374,1.933-.76,2.916-1.113a5.558,5.558,0,0,0-3.8-1.322c-3.194,0-6.956,1.936-9.819,5.052Zm109.009,6.536a1.35,1.35,0,0,1,1.233.788,12.968,12.968,0,0,1,5.02-2.519,14.332,14.332,0,0,0,4.618-2.166,69.478,69.478,0,0,1-8.757,2.486c-1.745.414-3.545.84-5.31,1.345a1.459,1.459,0,0,0,1.08.446,4.264,4.264,0,0,0,1.072-.191A4.206,4.206,0,0,1,226.472,51.339ZM172.762,37.548h0a115.776,115.776,0,0,1-25.1,8.32,6.645,6.645,0,0,0,3.415.705c6.4,0,18.527-4.547,21.69-9.025Zm10.615-4.327h0a9.765,9.765,0,0,1-2.614.883c-2.035.483-4.139.983-4.52,4.037a14.472,14.472,0,0,1,2.849-1.654c1.613-.78,3.281-1.587,4.285-3.266Zm44.812-.453q-4.944,1.054-9.883,2.1c.038.242.079.484.12.725l.062.369h.185a14.7,14.7,0,0,0,9.515-3.2Zm-32.52-4.1c-2.845,0-6.922,1.637-8.819,4.377,2.317-1.472,4.864-1.94,7.561-2.436a40.122,40.122,0,0,0,4.328-.964A4.381,4.381,0,0,0,195.669,28.664Z" transform="translate(5.548 49.297)" fill="#1baaa0"/>
    <path id="Fill_493" data-name="Fill 493" d="M39.684,76.65c-.2,0-.39-.244-.614-.527-.05-.063-.1-.128-.154-.192a1.573,1.573,0,0,0-1.147-.72,1.276,1.276,0,0,0-.553.139A15.309,15.309,0,0,1,31.737,76.4c-.4.029-.8.058-1.2.092-.659.057-1.281.086-1.851.086-4.615,0-6.932-1.877-7.749-6.277-.3-1.614-.771-2.3-1.579-2.3a4.32,4.32,0,0,0-1.3.316c-.289.1-.588.2-.9.283.127-.307.284-.612.437-.907.383-.74.744-1.439.472-1.925-.218-.39-.835-.617-1.885-.693-1.448-.105-1.959-1.275-2.453-2.407a6.951,6.951,0,0,0-.809-1.51c-.168-.213-.227-.364-.18-.461.068-.14.353-.151.616-.151H13.7a1.792,1.792,0,0,0,.555-.059l.038-.014c.941-.352,2.008-.751,2.206-2-.472-.058-.689-.474-.918-.916-.254-.489-.516-.994-1.155-.994a1.964,1.964,0,0,0-.725.165,2.265,2.265,0,0,1-.85.163,5.647,5.647,0,0,1-3.094-1.412c.7,1.851,0,3.321-.681,4.742a8.587,8.587,0,0,0-.949,2.759c-.061.586-.18,1.185-.295,1.764a8.762,8.762,0,0,0-.158,4.071,1.492,1.492,0,0,1-.14,1.3.6.6,0,0,1-.462.258.546.546,0,0,1-.471-.322,7.177,7.177,0,0,0-2.225-2.176c-1.15-.837-2.339-1.7-2.616-3.368-.166-1.01.318-1.249.878-1.526.064-.032.13-.064.2-.1a2.533,2.533,0,0,1,1.006-.124c.454,0,.882,0,.993-.207.061-.112.021-.275-.123-.5a7.489,7.489,0,0,1-.936-4.366,15.2,15.2,0,0,0-.086-1.953,2.209,2.209,0,0,1-1.3.753c-.524,0-.754-.592-1-1.218s-.5-1.289-1.084-1.335c-.156-.012-.328-.529-.3-1.114.016-.424.165-1.41,1.19-1.41H1.27a3.711,3.711,0,0,0,2.875-1c1.018-1.128.824-3.013.682-4.388l-.007-.071c-.327-3.207,1.119-4.8,3.728-6.48.6.316.577.988.551,1.638-.033.861-.068,1.751,1.346,1.837q.091.006.176.006c1.2,0,1.535-.828,1.862-1.628a3.6,3.6,0,0,1,.649-1.163l.051-.053c.5-.505,1.111-1.134.539-1.93a.977.977,0,0,0-.835-.445,2.884,2.884,0,0,0-.917.214c-.121.042-.237.083-.345.113a4.251,4.251,0,0,1-1.123.173,1.585,1.585,0,0,1-1.6-.926,2.537,2.537,0,0,1,.255-2.333,20.351,20.351,0,0,0,2.227-3.192,13.579,13.579,0,0,1,3.623-4.416,5.079,5.079,0,0,1,2.762-1.082c1.407,0,2.359,1.141,2.754,3.3a1.926,1.926,0,0,0,.526.985c5.014,4.8,4.6,10.885,4.2,16.769-.046.668-.092,1.356-.13,2.029-.145,2.611-.2,4.121.427,4.781a1.616,1.616,0,0,0,1.249.413,18.33,18.33,0,0,0,3.786-.687c5.191-1.259,10-3.62,14.645-5.9,1.17-.575,2.375-1.167,3.567-1.732,1.105-.525,2.223-1.065,3.3-1.588,5.629-2.72,11.45-5.534,17.625-7.179a18.975,18.975,0,0,1,4.845-.683,12.365,12.365,0,0,1,10.21,5.141,5.254,5.254,0,0,0,4.286,2.421,8.388,8.388,0,0,0,3.021-.67c8.884-3.479,17.214-8.33,25.27-13.022q1.759-1.025,3.52-2.045a94.957,94.957,0,0,1,14.447-6.538,14.94,14.94,0,0,1,5.211-.961,14.436,14.436,0,0,1,10.729,4.954,13.672,13.672,0,0,0,10.759,4.841,22.592,22.592,0,0,0,3.244-.249c16.082-2.329,31.463-7.67,45.034-12.382C223.7,13.622,237.989,8.056,255.251.76a8.423,8.423,0,0,1,2.557-.705c.294-.026.68-.055,1.066-.055,1.473,0,2.291.432,2.574,1.359.242.8-.507,1.177-1.3,1.576a5,5,0,0,0-.995.6,3.575,3.575,0,0,1-.988.507c-.515.2-1.047.414-1.218.819A1,1,0,0,0,257,5.65a1.069,1.069,0,0,0,1.053.765,4.218,4.218,0,0,0,1.189-.261,4.627,4.627,0,0,1,1.124-.261,7.247,7.247,0,0,0,1.307-.255,6.89,6.89,0,0,1,1.495-.272.688.688,0,0,1,.658.276c.231.406-.06,1.285-.891,2.687a1.114,1.114,0,0,0,.161.967c1.539,2.027,2.068,3.955,1.571,5.731-.563,2.011-2.444,3.7-5.438,4.878a74.071,74.071,0,0,0-11.169,5.619,155.885,155.885,0,0,1-14.938,7.651c-2.15,1-4.372,2.043-6.539,3.11A298.627,298.627,0,0,1,187.9,52.326a69.605,69.605,0,0,1-21.987,3.718c-.639,0-1.286-.01-1.922-.03-.232-.008-.478-.015-.715-.015a3.981,3.981,0,0,0-2.907.951,6.313,6.313,0,0,0,3.41,1.727c-.363-.064-.733-.119-1.09-.171-1.749-.257-3.558-.523-4.828-2.219a2.6,2.6,0,0,0-2.032-.879c-.191-.023-.389-.046-.589-.079l-.271-.042c-.87-.132-2.061-.314-2.475-1.092a2.262,2.262,0,0,1,.214-2,1.436,1.436,0,0,0,.1-.479c.007-.072.014-.144.025-.214a3.2,3.2,0,0,1-.783.111c-1.2,0-1.521-.969-1.837-1.907-.271-.806-.527-1.566-1.288-1.768a12.157,12.157,0,0,1-5.85-3.609,3.951,3.951,0,0,0-3.017-1.135,10.164,10.164,0,0,0-1.544.134,4.305,4.305,0,0,0-1.145.437,3.1,3.1,0,0,1-1.211.417c-.6,0-.924-.6-1.029-1.885a2.275,2.275,0,0,0-.794-.1,2.044,2.044,0,0,0-.584.069.931.931,0,0,0-.606.547,1.262,1.262,0,0,0,.128,1.038,2.693,2.693,0,0,1,.361,2.331,1.869,1.869,0,0,1-1.312,1.063A8.7,8.7,0,0,0,129.6,48.78a6.183,6.183,0,0,1-3.665,1.63q-.133,0-.27-.009c-.768-.053-.9-.626-1.047-1.29a2.3,2.3,0,0,0-.783-1.511,4.84,4.84,0,0,1-1.594,1.7c-1.111.863-2.26,1.756-1.483,3.8.015.043-.022.133-.1.243-.105.15-.266.3-.352.3-.192-.017-.372-.026-.535-.026-1.936,0-2.248,1.18-2.766,3.135l-.035.132c-.452,1.709-2.308,2.239-4.1,2.753a17.282,17.282,0,0,0-1.935.635l-.176.071c-.343.136-.764.3-.767.461-.084,2.621-1.256,2.975-2.391,2.975a11.27,11.27,0,0,1-1.346-.114,11.112,11.112,0,0,0-1.343-.114,2.42,2.42,0,0,0-1.363.329.675.675,0,0,1-.365.116c-.466,0-.892-.557-1.283-1.159-1.045-1.613-2-2.364-3.02-2.364-.88,0-1.829.593-2.9,1.814a9.173,9.173,0,0,1-2.126,1.615c-.364.226-.741.46-1.1.714a3.165,3.165,0,0,0,1.356.242c.167,0,.334-.005.5-.011s.324-.01.485-.01A2.468,2.468,0,0,1,97.444,66a7.713,7.713,0,0,1-4.525,1.362,11.431,11.431,0,0,1-1.575-.115l-.139-.02a12.149,12.149,0,0,0-1.706-.162,4.574,4.574,0,0,0-1.493.234,7.742,7.742,0,0,1-2.4.5c-1.6,0-2.341-1.088-2.349-3.424,0-.889-1.638-2.121-3.166-2.977a12.35,12.35,0,0,0-4.951-1.732,2.079,2.079,0,0,0-.382.032c-.883.166-1.853.262-2.791.354a13.436,13.436,0,0,0-4.881,1.051,51.578,51.578,0,0,1-4.726,2.251c-3.669,1.6-7.463,3.25-10,6.734a2.577,2.577,0,0,1-1.78.948,5.567,5.567,0,0,0-.851.232,20.027,20.027,0,0,1-2.952.807c-2.537.557-5.161,1.132-6.639,4.116C39.981,76.506,39.838,76.65,39.684,76.65ZM31.17,72.111v0c-.775,0-1.556.828-3.269,2.641l1.436-.161c1.519-.172,2.914-.33,4.477-.509-1.255-1.269-1.945-1.971-2.643-1.971ZM25.78,58.638v0c-.433,0-.642.319-.657,1-.032,1.236.662,1.558,1.809,1.943a4.8,4.8,0,0,0,1.519.266c1.942,0,3.241-1.405,4.617-2.893.325-.352.662-.716,1.007-1.059l-1.882.231c-1.686.2-3.429.41-5.121.73a.606.606,0,0,1-.105.009,2.257,2.257,0,0,1-.558-.109l-.021-.006a2.415,2.415,0,0,0-.607-.115ZM7.416,48.732c-.113.1-.225.2-.334.3-1.012.889-1.811,1.591-1.247,2.9.631,1.462,1.923,2.11,4.607,2.311A4.99,4.99,0,0,1,7.9,50.393,10.53,10.53,0,0,0,7.416,48.732Zm173.193,2.4c-3.108.679-6.314,1.1-9.414,1.5-2.146.279-4.363.568-6.529.941a18.994,18.994,0,0,0,3.4.3c4.183,0,8.211-1.323,12.107-2.6ZM176.3,43.147a1.135,1.135,0,0,0-.254.029c-2.579.588-5.189,1.238-7.713,1.867q-1.39.346-2.771.688l.082.6,2.8-.352h.022v0c2.757-.346,5.609-.7,8.408-1.086a.783.783,0,0,0,.407-.335.657.657,0,0,0,.161-.413A1.167,1.167,0,0,0,176.3,43.147Zm-6.582-7.441a88.6,88.6,0,0,0-10,.413l-.075.024c-.466.147-.994.313-.85.919a2.016,2.016,0,0,0,.781,1.2,7.049,7.049,0,0,0,3.316.611c3.489,0,8.527-1.213,10.465-3.019A24.413,24.413,0,0,0,169.714,35.706Zm11.345-2.057a14.953,14.953,0,0,1,1.733.137,15.3,15.3,0,0,0,1.743.137c1.337,0,2.849-.322,3.919-2.712a19.121,19.121,0,0,0-7.284,1.989c-.563.238-1.137.482-1.706.707A4.434,4.434,0,0,1,181.059,33.649Zm-44.659-7a4.462,4.462,0,0,0-3.337,1.3,5.513,5.513,0,0,0,3.956,1.458,18.815,18.815,0,0,0,2.651-.257,18.963,18.963,0,0,1,2.644-.253h.09a1.261,1.261,0,0,0,.892-2.034.51.51,0,0,0-.372-.179.489.489,0,0,0-.185.038,5.077,5.077,0,0,1-1.955.349,15.624,15.624,0,0,1-2.2-.213A15.5,15.5,0,0,0,136.4,26.647Z" transform="translate(97.531 105.505)" fill="#1baaa0"/>
    <path id="Fill_495" data-name="Fill 495" d="M10.507,0A18.5,18.5,0,0,1,0,2.455C3.576-.029,7.365,1.35,10.507,0" transform="translate(269.601 161.557)" fill="#1baaa0"/>
  </g>
</svg>
